<svg xmlns="http://www.w3.org/2000/svg" viewBox="0 0 512 512">
  <defs>
    <linearGradient id="gradient" x1="0%" y1="0%" x2="100%" y2="100%">
      <stop offset="0%" style="stop-color:#FF6F00"/>
      <stop offset="50%" style="stop-color:#FF5722"/>
      <stop offset="100%" style="stop-color:#D81B60"/>
    </linearGradient>
  </defs>
  <rect width="512" height="512" rx="100" fill="url(#gradient)"/>
  <path d="M256 380c-68.4 0-124-55.6-124-124 0-68.4 55.6-124 124-124s124 55.6 124 124c0 68.4-55.6 124-124 124zm0-216c-50.7 0-92 41.3-92 92s41.3 92 92 92 92-41.3 92-92-41.3-92-92-92z" fill="white" opacity="0.3"/>
  <path d="M256 120c-12.6 0-24.8 1.5-36.5 4.3 7.3-2.8 15.2-4.3 23.5-4.3 35.3 0 64 28.7 64 64 0 8.3-1.5 16.2-4.3 23.5 2.8-11.7 4.3-23.9 4.3-36.5 0-28.2-23-51-51-51z" fill="white" opacity="0.5"/>
  <path fill="white" d="M256 180c-41.4 0-75 33.6-75 75 0 41.4 33.6 75 75 75s75-33.6 75-75c0-41.4-33.6-75-75-75zm0 128c-29.2 0-53-23.8-53-53s23.8-53 53-53 53 23.8 53 53-23.8 53-53 53z"/>
  <path fill="white" d="M256 205l12 36h38l-31 22 12 37-31-23-31 23 12-37-31-22h38z"/>
</svg>

